<svg version="1.1" id="Layer_1" xmlns="http://www.w3.org/2000/svg" xmlns:xlink="http://www.w3.org/1999/xlink" x="0px" y="0px" viewBox="0 0 500 500" style="width: 171px;" xml:space="preserve" data-imageid="data-center-54" imageName="Data Center" class="illustrations_image">
<style type="text/css">
	.st0_data-center-54{fill:#D1D3D4;}
	.st1_data-center-54{fill:#FFFFFF;}
	.st2_data-center-54{fill:#231F20;}
	.st3_data-center-54{fill:#68E1FD;}
</style>
<path id="Folder_data-center-54" class="st0_data-center-54" d="M149.7,318.5c-70.1,0-123.5-0.3-124.7-1.2c-0.3-0.2-0.3-0.6-0.1-0.9c0.2-0.2,0.5-0.3,0.8-0.2&#10;&#9;c6.4,1.8,296.2,0.7,448.8-0.1c0.3,0,0.6,0.3,0.6,0.6c0,0.3-0.3,0.6-0.6,0.6l0,0C428.1,317.7,265.9,318.5,149.7,318.5z"/>
<g id="Folder-2_data-center-54">
	<rect x="32.2" y="158.4" class="st1_data-center-54" width="94.9" height="34"/>
	<path class="st0_data-center-54" d="M127.1,193H32.2c-0.3,0-0.6-0.3-0.6-0.6l0,0v-34c0-0.3,0.3-0.6,0.6-0.6h0h94.9c0.3,0,0.6,0.3,0.6,0.6l0,0v34&#10;&#9;&#9;C127.7,192.7,127.4,193,127.1,193L127.1,193z M32.8,191.7h93.7V159H32.8V191.7z"/>
	<polygon class="st1_data-center-54" points="32.2,158.4 32.2,155 64.4,155 68.7,151.9 127.1,151.9 127.1,158.4 &#9;"/>
	<path class="st0_data-center-54" d="M127.1,159H32.2c-0.3,0-0.6-0.3-0.6-0.6l0,0V155c0-0.3,0.3-0.6,0.6-0.6h0h32l4.2-3c0.1-0.1,0.2-0.1,0.4-0.1&#10;&#9;&#9;h58.4c0.3,0,0.6,0.3,0.6,0.6l0,0v6.4C127.8,158.7,127.5,159,127.1,159C127.1,159,127.1,159,127.1,159z M32.8,157.7h93.7v-5.2H68.9&#10;&#9;&#9;l-4.2,3c-0.1,0.1-0.2,0.1-0.4,0.1H32.8V157.7z"/>
</g>
<path id="Outline_data-center-54" class="st0_data-center-54" d="M173.7,360.5c-5.2-0.1-10.3-0.9-15.2-2.4c-19.1-5-30.8-13-35.7-24.3c-0.1-0.3,0.1-0.7,0.4-0.8&#10;&#9;c0.3-0.1,0.6,0,0.7,0.3c4.7,10.9,16.1,18.6,34.8,23.6c8.6,2.3,19.6,4.2,28-1.1c2.1-1.5,4.1-3.1,5.9-5c1.7-1.7,3.5-3.3,5.5-4.8&#10;&#9;c4.6-3.2,10-4.4,15.7-4.5c5.8-5.4,21.5-6.4,24.7-6.5c7.4-0.4,13.1-1.5,17.9-3.6c6.1-2.6,10.7-6.9,13-12c0.1-0.3,0.5-0.5,0.8-0.3&#10;&#9;c0,0,0,0,0,0c0.3,0.1,0.5,0.5,0.3,0.8c-2.4,5.4-7.3,9.9-13.6,12.7c-5,2.2-10.8,3.3-18.3,3.7c-2.9,0.1-16.5,1-22.7,5.2&#10;&#9;c5.2,0.2,10.3,0.8,15.4,1.8c1.3,0.1,2.5,0.7,3.3,1.6c0.6,0.7,0.7,1.7,0.4,2.5c-0.6,1.8-3,3.4-5.1,4c-5.7,1.7-12.2,2.9-16.4-1&#10;&#9;c-1-0.9-1.7-2.1-1.9-3.4c-0.2-1.5,0.2-3,1.1-4.3c-4.9,0.1-9.7,1.6-13.8,4.3c-1.9,1.4-3.7,2.9-5.4,4.6c-1.9,1.9-3.9,3.6-6.1,5.1&#10;&#9;C183.3,359.4,178.5,360.7,173.7,360.5z M214.4,342.8c-0.1,0.1-0.2,0.2-0.3,0.4c-0.9,1-1.4,2.4-1.2,3.8c0.2,1,0.7,1.9,1.5,2.6&#10;&#9;c3.7,3.5,9.8,2.3,15.1,0.7c1.8-0.5,3.8-1.9,4.3-3.2c0.2-0.5,0.1-1-0.2-1.4c-0.7-0.7-1.6-1.1-2.5-1.1&#10;&#9;C225.6,343.5,220,342.9,214.4,342.8L214.4,342.8z"/>
<g id="Server_data-center-54">
	<path class="st1_data-center-54" d="M380.9,163h81.5c2.4,0,4.3,1.9,4.3,4.3v155.8c0,2.4-1.9,4.3-4.3,4.3h-81.5c-2.4,0-4.3-1.9-4.3-4.3V167.3&#10;&#9;&#9;C376.5,164.9,378.5,163,380.9,163z"/>
	<path class="st2_data-center-54" d="M462.3,328.1h-81.5c-2.8,0-5-2.2-5-5V167.3c0-2.8,2.2-5,5-5h81.5c2.8,0,5,2.2,5,5v155.8&#10;&#9;&#9;C467.3,325.9,465.1,328.1,462.3,328.1C462.4,328.1,462.3,328.1,462.3,328.1z M380.9,163.7c-2,0-3.6,1.6-3.6,3.6v155.8&#10;&#9;&#9;c0,2,1.6,3.6,3.6,3.6h81.5c2,0,3.6-1.6,3.6-3.6V167.3c0-2-1.6-3.6-3.6-3.6H380.9z"/>
	<path class="st1_data-center-54" d="M388.1,168.6h67.8c2.4,0,4.3,1.9,4.3,4.3v10.8c0,2.4-1.9,4.3-4.3,4.3h-67.8c-2.4,0-4.3-1.9-4.3-4.3v-10.8&#10;&#9;&#9;C383.8,170.5,385.7,168.6,388.1,168.6z"/>
	<path class="st2_data-center-54" d="M455.9,188.7h-67.8c-2.8,0-5-2.2-5-5v-10.8c0-2.8,2.2-5,5-5h67.8c2.8,0,5,2.2,5,5v10.8&#10;&#9;&#9;C460.9,186.4,458.7,188.7,455.9,188.7C455.9,188.7,455.9,188.7,455.9,188.7z M388.1,169.3c-2,0-3.6,1.6-3.6,3.6v10.8&#10;&#9;&#9;c0,2,1.6,3.6,3.6,3.6h67.8c2,0,3.6-1.6,3.6-3.6v-10.8c0-2-1.6-3.6-3.6-3.6L388.1,169.3z"/>
	<path class="st0_data-center-54" d="M451,176.8h-32.9c-0.3,0-0.6-0.3-0.6-0.6c0-0.3,0.3-0.6,0.6-0.6H451c0.3,0,0.6,0.3,0.6,0.6&#10;&#9;&#9;C451.6,176.5,451.3,176.7,451,176.8z"/>
	<path class="st0_data-center-54" d="M451,181.8h-32.9c-0.3,0-0.6-0.3-0.6-0.6c0-0.3,0.3-0.6,0.6-0.6H451c0.3,0,0.6,0.3,0.6,0.6&#10;&#9;&#9;C451.6,181.5,451.3,181.8,451,181.8z"/>
	<circle class="st3_data-center-54 targetColor" cx="394.1" cy="178.3" r="3" style="fill: rgb(104, 225, 253);"/>
	<path class="st0_data-center-54" d="M404,181.9c-2,0-3.7-1.6-3.7-3.6s1.6-3.7,3.6-3.7c2,0,3.7,1.6,3.7,3.6c0,0,0,0,0,0&#10;&#9;&#9;C407.6,180.3,406,181.9,404,181.9z M404,175.9c-1.3,0-2.4,1.1-2.4,2.4c0,1.3,1.1,2.4,2.4,2.4c1.3,0,2.4-1.1,2.4-2.4c0,0,0,0,0,0&#10;&#9;&#9;C406.4,177,405.3,175.9,404,175.9L404,175.9z"/>
	<path class="st1_data-center-54" d="M388.1,192.3h67.8c2.4,0,4.3,1.9,4.3,4.3v10.8c0,2.4-1.9,4.3-4.3,4.3h-67.8c-2.4,0-4.3-1.9-4.3-4.3v-10.8&#10;&#9;&#9;C383.8,194.3,385.7,192.3,388.1,192.3z"/>
	<path class="st2_data-center-54" d="M455.9,212.5h-67.8c-2.8,0-5-2.2-5-5v-10.8c0-2.8,2.2-5,5-5h67.8c2.8,0,5,2.2,5,5v10.8&#10;&#9;&#9;C460.9,210.2,458.7,212.4,455.9,212.5C455.9,212.5,455.9,212.5,455.9,212.5z M388.1,193c-2,0-3.6,1.6-3.6,3.6v10.8&#10;&#9;&#9;c0,2,1.6,3.6,3.6,3.6h67.8c2,0,3.6-1.6,3.6-3.6v-10.8c0-2-1.6-3.6-3.6-3.6L388.1,193z"/>
	<path class="st0_data-center-54" d="M451,200.5h-32.9c-0.3,0-0.6-0.3-0.6-0.6c0-0.3,0.3-0.6,0.6-0.6H451c0.3,0,0.6,0.3,0.6,0.6&#10;&#9;&#9;C451.6,200.2,451.3,200.5,451,200.5z"/>
	<path class="st0_data-center-54" d="M451,205.6h-32.9c-0.3,0-0.6-0.3-0.6-0.6c0,0,0,0,0,0c0-0.3,0.3-0.6,0.6-0.6l0,0H451c0.3,0,0.6,0.3,0.6,0.6&#10;&#9;&#9;c0,0,0,0,0,0C451.6,205.3,451.3,205.6,451,205.6L451,205.6z"/>
	<circle class="st3_data-center-54 targetColor" cx="394.1" cy="202" r="3" style="fill: rgb(104, 225, 253);"/>
	<path class="st0_data-center-54" d="M404,205.7c-2,0-3.7-1.6-3.7-3.6c0-2,1.6-3.7,3.6-3.7s3.7,1.6,3.7,3.6c0,0,0,0,0,0&#10;&#9;&#9;C407.6,204.1,406,205.7,404,205.7z M404,199.7c-1.3,0-2.4,1.1-2.4,2.4s1.1,2.4,2.4,2.4s2.4-1.1,2.4-2.4c0,0,0,0,0,0&#10;&#9;&#9;C406.4,200.8,405.4,199.7,404,199.7C404,199.7,404,199.7,404,199.7L404,199.7z"/>
	<path class="st1_data-center-54" d="M388.1,216.1h67.8c2.4,0,4.3,1.9,4.3,4.3v10.8c0,2.4-1.9,4.3-4.3,4.3h-67.8c-2.4,0-4.3-1.9-4.3-4.3v-10.8&#10;&#9;&#9;C383.8,218,385.7,216.1,388.1,216.1z"/>
	<path class="st2_data-center-54" d="M455.9,236.2h-67.8c-2.8,0-5-2.2-5-5v-10.8c0-2.8,2.2-5,5-5h67.8c2.8,0,5,2.2,5,5v10.8&#10;&#9;&#9;C460.9,234,458.7,236.2,455.9,236.2C455.9,236.2,455.9,236.2,455.9,236.2z M388.1,216.8c-2,0-3.6,1.6-3.6,3.6v10.8&#10;&#9;&#9;c0,2,1.6,3.6,3.6,3.6h67.8c2,0,3.6-1.6,3.6-3.6v-10.8c0-2-1.6-3.6-3.6-3.6H388.1z"/>
	<path class="st0_data-center-54" d="M451,224.3h-32.9c-0.3,0-0.6-0.3-0.6-0.6c0,0,0,0,0,0c0-0.3,0.3-0.6,0.6-0.6l0,0H451c0.3,0,0.6,0.3,0.6,0.6&#10;&#9;&#9;c0,0,0,0,0,0C451.6,224,451.3,224.3,451,224.3L451,224.3z"/>
	<path class="st0_data-center-54" d="M451,229.3h-32.9c-0.3,0-0.6-0.3-0.6-0.6c0-0.3,0.3-0.6,0.6-0.6H451c0.3,0,0.6,0.3,0.6,0.6&#10;&#9;&#9;C451.6,229,451.3,229.3,451,229.3z"/>
	<circle class="st3_data-center-54 targetColor" cx="394.1" cy="225.8" r="3" style="fill: rgb(104, 225, 253);"/>
	<path class="st0_data-center-54" d="M404,229.5c-2,0-3.7-1.6-3.7-3.6s1.6-3.7,3.6-3.7c2,0,3.7,1.6,3.7,3.6c0,0,0,0,0,0&#10;&#9;&#9;C407.6,227.8,406,229.5,404,229.5z M404,223.4c-1.3,0-2.4,1.1-2.4,2.4c0,1.3,1.1,2.4,2.4,2.4c1.3,0,2.4-1.1,2.4-2.4c0,0,0,0,0,0&#10;&#9;&#9;C406.4,224.5,405.3,223.4,404,223.4z"/>
	<path class="st1_data-center-54" d="M388.1,239.9h67.8c2.4,0,4.3,1.9,4.3,4.3V255c0,2.4-1.9,4.3-4.3,4.3h-67.8c-2.4,0-4.3-1.9-4.3-4.3v-10.8&#10;&#9;&#9;C383.8,241.8,385.7,239.9,388.1,239.9z"/>
	<path class="st2_data-center-54" d="M455.9,260h-67.8c-2.8,0-5-2.2-5-5v-10.8c0-2.8,2.2-5,5-5h67.8c2.8,0,5,2.2,5,5V255&#10;&#9;&#9;C460.9,257.8,458.7,260,455.9,260z M388.1,240.6c-2,0-3.6,1.6-3.6,3.6V255c0,2,1.6,3.6,3.6,3.6h67.8c2,0,3.6-1.6,3.6-3.6v-10.8&#10;&#9;&#9;c0-2-1.6-3.6-3.6-3.6H388.1z"/>
	<path class="st0_data-center-54" d="M451,248h-32.9c-0.3,0-0.6-0.3-0.6-0.6c0-0.3,0.3-0.6,0.6-0.6H451c0.3,0,0.6,0.3,0.6,0.6&#10;&#9;&#9;C451.6,247.7,451.3,248,451,248z"/>
	<path class="st0_data-center-54" d="M451,253.1h-32.9c-0.3,0-0.6-0.3-0.6-0.6c0,0,0,0,0,0c0-0.3,0.3-0.6,0.6-0.6l0,0H451c0.3,0,0.6,0.3,0.6,0.6&#10;&#9;&#9;c0,0,0,0,0,0C451.6,252.8,451.3,253.1,451,253.1L451,253.1z"/>
	<circle class="st3_data-center-54 targetColor" cx="394.1" cy="249.6" r="3" style="fill: rgb(104, 225, 253);"/>
	<path class="st0_data-center-54" d="M404,253.2c-2,0-3.7-1.6-3.7-3.6c0-2,1.6-3.7,3.6-3.7s3.7,1.6,3.7,3.6c0,0,0,0,0,0&#10;&#9;&#9;C407.6,251.6,406,253.2,404,253.2z M404,247.2c-1.3,0-2.4,1.1-2.4,2.4s1.1,2.4,2.4,2.4s2.4-1.1,2.4-2.4c0,0,0,0,0,0&#10;&#9;&#9;C406.4,248.3,405.4,247.2,404,247.2C404,247.2,404,247.2,404,247.2L404,247.2z"/>
	<path class="st1_data-center-54" d="M388.1,263.6h67.8c2.4,0,4.3,1.9,4.3,4.3v10.8c0,2.4-1.9,4.3-4.3,4.3h-67.8c-2.4,0-4.3-1.9-4.3-4.3v-10.8&#10;&#9;&#9;C383.8,265.5,385.7,263.6,388.1,263.6z"/>
	<path class="st2_data-center-54" d="M455.9,283.8h-67.8c-2.8,0-5-2.2-5-5V268c0-2.8,2.2-5,5-5h67.8c2.8,0,5,2.2,5,5v10.8&#10;&#9;&#9;C460.9,281.5,458.7,283.8,455.9,283.8z M388.1,264.3c-2,0-3.6,1.6-3.6,3.6v10.8c0,2,1.6,3.6,3.6,3.6h67.8c2,0,3.6-1.6,3.6-3.6V268&#10;&#9;&#9;c0-2-1.6-3.6-3.6-3.6L388.1,264.3z"/>
	<path class="st0_data-center-54" d="M451,271.8h-32.9c-0.3,0-0.6-0.3-0.6-0.6l0,0c0-0.3,0.3-0.6,0.6-0.6l0,0H451c0.3,0,0.6,0.3,0.6,0.6l0,0&#10;&#9;&#9;C451.6,271.5,451.3,271.8,451,271.8L451,271.8z"/>
	<path class="st0_data-center-54" d="M451,276.9h-32.9c-0.3,0-0.6-0.3-0.6-0.6l0,0c0-0.3,0.3-0.6,0.6-0.6l0,0H451c0.3,0,0.6,0.3,0.6,0.6l0,0&#10;&#9;&#9;C451.6,276.6,451.3,276.9,451,276.9L451,276.9z"/>
	<circle class="st3_data-center-54 targetColor" cx="394.1" cy="273.3" r="3" style="fill: rgb(104, 225, 253);"/>
	<path class="st0_data-center-54" d="M404,277c-2,0-3.7-1.6-3.7-3.6s1.6-3.7,3.6-3.7s3.7,1.6,3.7,3.6c0,0,0,0,0,0C407.6,275.4,406,277,404,277z&#10;&#9;&#9; M404,271c-1.3,0-2.4,1.1-2.4,2.4c0,1.3,1.1,2.4,2.4,2.4s2.4-1.1,2.4-2.4c0,0,0,0,0,0C406.4,272,405.3,271,404,271L404,271z"/>
	<path class="st1_data-center-54" d="M388.1,287.4h67.8c2.4,0,4.3,1.9,4.3,4.3v10.8c0,2.4-1.9,4.3-4.3,4.3h-67.8c-2.4,0-4.3-1.9-4.3-4.3v-10.8&#10;&#9;&#9;C383.8,289.3,385.7,287.4,388.1,287.4z"/>
	<path class="st2_data-center-54" d="M455.9,307.5h-67.8c-2.8,0-5-2.2-5-5v-10.8c0-2.8,2.2-5,5-5h67.8c2.8,0,5,2.2,5,5v10.8&#10;&#9;&#9;C460.9,305.3,458.7,307.5,455.9,307.5C455.9,307.5,455.9,307.5,455.9,307.5z M388.1,288.1c-2,0-3.6,1.6-3.6,3.6v10.8&#10;&#9;&#9;c0,2,1.6,3.6,3.6,3.6h67.8c2,0,3.6-1.6,3.6-3.6v-10.8c0-2-1.6-3.6-3.6-3.6H388.1z"/>
	<path class="st0_data-center-54" d="M451,295.6h-32.9c-0.3,0-0.6-0.3-0.6-0.6s0.3-0.6,0.6-0.6H451c0.3,0,0.6,0.3,0.6,0.6S451.3,295.6,451,295.6z"/>
	<path class="st0_data-center-54" d="M451,300.6h-32.9c-0.3,0-0.6-0.3-0.6-0.6s0.3-0.6,0.6-0.6H451c0.3,0,0.6,0.3,0.6,0.6S451.3,300.6,451,300.6z"/>
	<circle class="st3_data-center-54 targetColor" cx="394.1" cy="297.1" r="3" style="fill: rgb(104, 225, 253);"/>
	<path class="st0_data-center-54" d="M404,300.8c-2,0-3.6-1.6-3.6-3.6c0-2,1.6-3.6,3.6-3.6c2,0,3.6,1.6,3.6,3.6l0,0&#10;&#9;&#9;C407.6,299.1,406,300.8,404,300.8z M404,294.8c-1.3,0-2.4,1.1-2.4,2.4s1.1,2.4,2.4,2.4s2.4-1.1,2.4-2.4c0,0,0,0,0,0&#10;&#9;&#9;C406.4,295.8,405.3,294.7,404,294.8C404,294.7,404,294.7,404,294.8L404,294.8z"/>
	<path class="st1_data-center-54" d="M222.1,163h81.5c2.4,0,4.3,1.9,4.3,4.3v155.8c0,2.4-1.9,4.3-4.3,4.3h-81.5c-2.4,0-4.3-1.9-4.3-4.3V167.3&#10;&#9;&#9;C217.8,164.9,219.7,163,222.1,163z"/>
	<path class="st2_data-center-54" d="M303.5,328.1h-81.5c-2.8,0-5-2.2-5-5V167.3c0-2.8,2.2-5,5-5h81.5c2.8,0,5,2.2,5,5v155.8&#10;&#9;&#9;C308.6,325.9,306.3,328.1,303.5,328.1C303.6,328.1,303.6,328.1,303.5,328.1z M222.1,163.7c-2,0-3.6,1.6-3.6,3.6v155.8&#10;&#9;&#9;c0,2,1.6,3.6,3.6,3.6h81.5c2,0,3.6-1.6,3.6-3.6V167.3c0-2-1.6-3.6-3.6-3.6H222.1z"/>
	<path class="st1_data-center-54" d="M229.3,168.6h67.8c2.4,0,4.3,1.9,4.3,4.3v10.8c0,2.4-1.9,4.3-4.3,4.3h-67.8c-2.4,0-4.3-1.9-4.3-4.3v-10.8&#10;&#9;&#9;C225,170.5,226.9,168.6,229.3,168.6z"/>
	<path class="st2_data-center-54" d="M297.1,188.7h-67.8c-2.8,0-5-2.2-5-5v-10.8c0-2.8,2.2-5,5-5h67.8c2.8,0,5,2.2,5,5v10.8&#10;&#9;&#9;C302.2,186.4,299.9,188.7,297.1,188.7C297.2,188.7,297.2,188.7,297.1,188.7z M229.3,169.3c-2,0-3.6,1.6-3.6,3.6v10.8&#10;&#9;&#9;c0,2,1.6,3.6,3.6,3.6h67.8c2,0,3.6-1.6,3.6-3.6v-10.8c0-2-1.6-3.6-3.6-3.6L229.3,169.3z"/>
	<path class="st0_data-center-54" d="M292.2,176.8h-32.8c-0.3,0-0.6-0.3-0.6-0.6c0-0.3,0.3-0.6,0.6-0.6h32.8c0.3,0,0.6,0.3,0.6,0.6&#10;&#9;&#9;C292.8,176.5,292.5,176.7,292.2,176.8L292.2,176.8z"/>
	<path class="st0_data-center-54" d="M292.2,181.8h-32.8c-0.3,0-0.6-0.3-0.6-0.6c0-0.3,0.3-0.6,0.6-0.6h32.8c0.3,0,0.6,0.3,0.6,0.6&#10;&#9;&#9;C292.8,181.5,292.5,181.8,292.2,181.8L292.2,181.8z"/>
	<circle class="st3_data-center-54 targetColor" cx="235.4" cy="178.3" r="3" style="fill: rgb(104, 225, 253);"/>
	<path class="st0_data-center-54" d="M245.2,181.9c-2,0-3.7-1.6-3.7-3.6c0-2,1.6-3.7,3.6-3.7c2,0,3.7,1.6,3.7,3.6c0,0,0,0,0,0&#10;&#9;&#9;C248.8,180.3,247.2,181.9,245.2,181.9z M245.2,175.9c-1.3,0-2.4,1.1-2.4,2.4s1.1,2.4,2.4,2.4s2.4-1.1,2.4-2.4v0&#10;&#9;&#9;C247.6,177,246.5,175.9,245.2,175.9L245.2,175.9z"/>
	<path class="st1_data-center-54" d="M229.3,192.3h67.8c2.4,0,4.3,1.9,4.3,4.3v10.8c0,2.4-1.9,4.3-4.3,4.3h-67.8c-2.4,0-4.3-1.9-4.3-4.3v-10.8&#10;&#9;&#9;C225,194.3,226.9,192.3,229.3,192.3z"/>
	<path class="st2_data-center-54" d="M297.1,212.5h-67.8c-2.8,0-5-2.2-5-5v-10.8c0-2.8,2.2-5,5-5h67.8c2.8,0,5,2.2,5,5v10.8&#10;&#9;&#9;C302.2,210.2,299.9,212.4,297.1,212.5C297.2,212.5,297.2,212.5,297.1,212.5z M229.3,193c-2,0-3.6,1.6-3.6,3.6v10.8&#10;&#9;&#9;c0,2,1.6,3.6,3.6,3.6h67.8c2,0,3.6-1.6,3.6-3.6v-10.8c0-2-1.6-3.6-3.6-3.6L229.3,193z"/>
	<path class="st0_data-center-54" d="M292.2,200.5h-32.8c-0.3,0-0.6-0.3-0.6-0.6c0-0.3,0.3-0.6,0.6-0.6h32.8c0.3,0,0.6,0.3,0.6,0.6&#10;&#9;&#9;C292.8,200.2,292.5,200.5,292.2,200.5L292.2,200.5z"/>
	<path class="st0_data-center-54" d="M292.2,205.6h-32.8c-0.3,0-0.6-0.3-0.6-0.6c0,0,0,0,0,0c0-0.3,0.3-0.6,0.6-0.6l0,0h32.8c0.3,0,0.6,0.3,0.6,0.6&#10;&#9;&#9;c0,0,0,0,0,0C292.8,205.3,292.5,205.5,292.2,205.6z"/>
	<circle class="st3_data-center-54 targetColor" cx="235.4" cy="202" r="3" style="fill: rgb(104, 225, 253);"/>
	<path class="st0_data-center-54" d="M245.2,205.7c-2,0-3.7-1.6-3.7-3.6c0-2,1.6-3.7,3.6-3.7c2,0,3.7,1.6,3.7,3.6c0,0,0,0,0,0&#10;&#9;&#9;C248.8,204.1,247.2,205.7,245.2,205.7z M245.2,199.7c-1.3,0-2.4,1.1-2.4,2.4c0,1.3,1.1,2.4,2.4,2.4c1.3,0,2.4-1.1,2.4-2.4&#10;&#9;&#9;c0,0,0,0,0,0C247.6,200.8,246.6,199.7,245.2,199.7C245.2,199.7,245.2,199.6,245.2,199.7L245.2,199.7z"/>
	<path class="st1_data-center-54" d="M229.3,216.1h67.8c2.4,0,4.3,1.9,4.3,4.3v10.8c0,2.4-1.9,4.3-4.3,4.3h-67.8c-2.4,0-4.3-1.9-4.3-4.3v-10.8&#10;&#9;&#9;C225,218,226.9,216.1,229.3,216.1z"/>
	<path class="st2_data-center-54" d="M297.1,236.2h-67.8c-2.8,0-5-2.2-5-5v-10.8c0-2.8,2.2-5,5-5h67.8c2.8,0,5,2.2,5,5v10.8&#10;&#9;&#9;C302.2,234,299.9,236.2,297.1,236.2C297.2,236.2,297.2,236.2,297.1,236.2z M229.3,216.8c-2,0-3.6,1.6-3.6,3.6v10.8&#10;&#9;&#9;c0,2,1.6,3.6,3.6,3.6h67.8c2,0,3.6-1.6,3.6-3.6v-10.8c0-2-1.6-3.6-3.6-3.6H229.3z"/>
	<path class="st0_data-center-54" d="M292.2,224.3h-32.8c-0.3,0-0.6-0.3-0.6-0.6c0,0,0,0,0,0c0-0.3,0.3-0.6,0.6-0.6l0,0h32.8c0.3,0,0.6,0.3,0.6,0.6&#10;&#9;&#9;c0,0,0,0,0,0C292.8,224,292.5,224.3,292.2,224.3z"/>
	<path class="st0_data-center-54" d="M292.2,229.3h-32.8c-0.3,0-0.6-0.3-0.6-0.6c0-0.3,0.3-0.6,0.6-0.6h32.8c0.3,0,0.6,0.3,0.6,0.6&#10;&#9;&#9;C292.8,229,292.5,229.3,292.2,229.3L292.2,229.3z"/>
	<circle class="st3_data-center-54 targetColor" cx="235.4" cy="225.8" r="3" style="fill: rgb(104, 225, 253);"/>
	<path class="st0_data-center-54" d="M245.2,229.5c-2,0-3.7-1.6-3.7-3.6c0-2,1.6-3.7,3.6-3.7c2,0,3.7,1.6,3.7,3.6c0,0,0,0,0,0&#10;&#9;&#9;C248.8,227.8,247.2,229.5,245.2,229.5z M245.2,223.4c-1.3,0-2.4,1.1-2.4,2.4s1.1,2.4,2.4,2.4s2.4-1.1,2.4-2.4v0&#10;&#9;&#9;C247.6,224.5,246.5,223.4,245.2,223.4z"/>
	<path class="st1_data-center-54" d="M229.3,239.9h67.8c2.4,0,4.3,1.9,4.3,4.3V255c0,2.4-1.9,4.3-4.3,4.3h-67.8c-2.4,0-4.3-1.9-4.3-4.3v-10.8&#10;&#9;&#9;C225,241.8,226.9,239.9,229.3,239.9z"/>
	<path class="st2_data-center-54" d="M297.1,260h-67.8c-2.8,0-5-2.2-5-5v-10.8c0-2.8,2.2-5,5-5h67.8c2.8,0,5,2.2,5,5V255&#10;&#9;&#9;C302.1,257.8,299.9,260,297.1,260z M229.3,240.6c-2,0-3.6,1.6-3.6,3.6V255c0,2,1.6,3.6,3.6,3.6h67.8c2,0,3.6-1.6,3.6-3.6v-10.8&#10;&#9;&#9;c0-2-1.6-3.6-3.6-3.6H229.3z"/>
	<path class="st0_data-center-54" d="M292.2,248h-32.8c-0.3,0-0.6-0.3-0.6-0.6c0-0.3,0.3-0.6,0.6-0.6h32.8c0.3,0,0.6,0.3,0.6,0.6&#10;&#9;&#9;C292.8,247.7,292.5,248,292.2,248L292.2,248z"/>
	<path class="st0_data-center-54" d="M292.2,253.1h-32.8c-0.3,0-0.6-0.3-0.6-0.6c0,0,0,0,0,0c0-0.3,0.3-0.6,0.6-0.6l0,0h32.8c0.3,0,0.6,0.3,0.6,0.6&#10;&#9;&#9;c0,0,0,0,0,0C292.8,252.8,292.5,253.1,292.2,253.1z"/>
	<circle class="st3_data-center-54 targetColor" cx="235.4" cy="249.6" r="3" style="fill: rgb(104, 225, 253);"/>
	<path class="st0_data-center-54" d="M245.2,253.2c-2,0-3.7-1.6-3.7-3.6c0-2,1.6-3.7,3.6-3.7c2,0,3.7,1.6,3.7,3.6c0,0,0,0,0,0&#10;&#9;&#9;C248.8,251.6,247.2,253.2,245.2,253.2z M245.2,247.2c-1.3,0-2.4,1.1-2.4,2.4c0,1.3,1.1,2.4,2.4,2.4c1.3,0,2.4-1.1,2.4-2.4&#10;&#9;&#9;c0,0,0,0,0,0C247.6,248.3,246.6,247.2,245.2,247.2C245.2,247.2,245.2,247.2,245.2,247.2L245.2,247.2z"/>
	<path class="st1_data-center-54" d="M229.3,263.6h67.8c2.4,0,4.3,1.9,4.3,4.3v10.8c0,2.4-1.9,4.3-4.3,4.3h-67.8c-2.4,0-4.3-1.9-4.3-4.3v-10.8&#10;&#9;&#9;C225,265.5,226.9,263.6,229.3,263.6z"/>
	<path class="st2_data-center-54" d="M297.1,283.8h-67.8c-2.8,0-5-2.2-5-5V268c0-2.8,2.2-5,5-5h67.8c2.8,0,5,2.2,5,5v10.8&#10;&#9;&#9;C302.1,281.5,299.9,283.8,297.1,283.8z M229.3,264.3c-2,0-3.6,1.6-3.6,3.6v10.8c0,2,1.6,3.6,3.6,3.6h67.8c2,0,3.6-1.6,3.6-3.6V268&#10;&#9;&#9;c0-2-1.6-3.6-3.6-3.6L229.3,264.3z"/>
	<path class="st0_data-center-54" d="M292.2,271.8h-32.8c-0.3,0-0.6-0.3-0.6-0.6l0,0c0-0.3,0.3-0.6,0.6-0.6l0,0h32.8c0.3,0,0.6,0.3,0.6,0.6l0,0&#10;&#9;&#9;C292.8,271.5,292.5,271.8,292.2,271.8z"/>
	<path class="st0_data-center-54" d="M292.2,276.9h-32.8c-0.3,0-0.6-0.3-0.6-0.6l0,0c0-0.3,0.3-0.6,0.6-0.6l0,0h32.8c0.3,0,0.6,0.3,0.6,0.6l0,0&#10;&#9;&#9;C292.8,276.6,292.5,276.9,292.2,276.9z"/>
	<circle class="st3_data-center-54 targetColor" cx="235.4" cy="273.3" r="3" style="fill: rgb(104, 225, 253);"/>
	<path class="st0_data-center-54" d="M245.2,277c-2,0-3.7-1.6-3.7-3.6c0-2,1.6-3.7,3.6-3.7c2,0,3.7,1.6,3.7,3.6c0,0,0,0,0,0&#10;&#9;&#9;C248.8,275.4,247.2,277,245.2,277z M245.2,271c-1.3,0-2.4,1.1-2.4,2.4s1.1,2.4,2.4,2.4c1.3,0,2.4-1.1,2.4-2.4l0,0&#10;&#9;&#9;C247.6,272,246.5,270.9,245.2,271C245.2,270.9,245.2,270.9,245.2,271L245.2,271z"/>
	<path class="st1_data-center-54" d="M229.3,287.4h67.8c2.4,0,4.3,1.9,4.3,4.3v10.8c0,2.4-1.9,4.3-4.3,4.3h-67.8c-2.4,0-4.3-1.9-4.3-4.3v-10.8&#10;&#9;&#9;C225,289.3,226.9,287.4,229.3,287.4z"/>
	<path class="st2_data-center-54" d="M297.1,307.5h-67.8c-2.8,0-5-2.2-5-5v-10.8c0-2.8,2.2-5,5-5h67.8c2.8,0,5,2.2,5,5v10.8&#10;&#9;&#9;C302.2,305.3,299.9,307.5,297.1,307.5C297.2,307.5,297.2,307.5,297.1,307.5z M229.3,288.1c-2,0-3.6,1.6-3.6,3.6v10.8&#10;&#9;&#9;c0,2,1.6,3.6,3.6,3.6h67.8c2,0,3.6-1.6,3.6-3.6v-10.8c0-2-1.6-3.6-3.6-3.6H229.3z"/>
	<path class="st0_data-center-54" d="M292.2,295.6h-32.8c-0.3,0-0.6-0.3-0.6-0.6s0.3-0.6,0.6-0.6h32.8c0.3,0,0.6,0.3,0.6,0.6&#10;&#9;&#9;S292.5,295.6,292.2,295.6L292.2,295.6z"/>
	<path class="st0_data-center-54" d="M292.2,300.6h-32.8c-0.3,0-0.6-0.3-0.6-0.6s0.3-0.6,0.6-0.6h32.8c0.3,0,0.6,0.3,0.6,0.6&#10;&#9;&#9;S292.5,300.6,292.2,300.6L292.2,300.6z"/>
	<circle class="st3_data-center-54 targetColor" cx="235.4" cy="297.1" r="3" style="fill: rgb(104, 225, 253);"/>
	<path class="st0_data-center-54" d="M245.2,300.8c-2,0-3.7-1.6-3.7-3.6s1.6-3.6,3.6-3.6c2,0,3.7,1.6,3.7,3.6l0,0&#10;&#9;&#9;C248.8,299.1,247.2,300.8,245.2,300.8z M245.2,294.8c-1.3,0-2.4,1.1-2.4,2.4c0,1.3,1.1,2.4,2.4,2.4c1.3,0,2.4-1.1,2.4-2.4&#10;&#9;&#9;c0,0,0,0,0,0C247.6,295.8,246.6,294.7,245.2,294.8C245.2,294.7,245.2,294.7,245.2,294.8L245.2,294.8z"/>
	<path class="st1_data-center-54" d="M294.3,140.2h95.9c2.8,0,5.1,2.3,5.1,5.1v183.4c0,2.8-2.3,5.1-5.1,5.1h-95.9c-2.8,0-5.1-2.3-5.1-5.1V145.3&#10;&#9;&#9;C289.2,142.5,291.5,140.2,294.3,140.2z"/>
	<path class="st2_data-center-54" d="M390.1,334.5h-95.9c-3.2,0-5.8-2.6-5.8-5.8V145.3c0-3.2,2.6-5.8,5.8-5.8h95.9c3.2,0,5.8,2.6,5.8,5.8v183.4&#10;&#9;&#9;C395.9,331.9,393.3,334.5,390.1,334.5z M294.3,140.9c-2.4,0-4.4,2-4.4,4.4v183.4c0,2.4,2,4.4,4.4,4.4h95.9c2.4,0,4.4-2,4.4-4.4&#10;&#9;&#9;V145.3c0-2.4-2-4.4-4.4-4.4L294.3,140.9z"/>
	<path class="st1_data-center-54" d="M302.8,146.8h79.8c2.8,0,5.1,2.3,5.1,5.1v12.7c0,2.8-2.3,5.1-5.1,5.1h-79.8c-2.8,0-5.1-2.3-5.1-5.1v-12.7&#10;&#9;&#9;C297.7,149,300,146.8,302.8,146.8z"/>
	<path class="st2_data-center-54" d="M382.6,170.4h-79.8c-3.2,0-5.8-2.6-5.8-5.8v-12.7c0-3.2,2.6-5.8,5.8-5.8h79.9c3.2,0,5.8,2.6,5.8,5.8v12.7&#10;&#9;&#9;C388.4,167.8,385.8,170.4,382.6,170.4C382.6,170.4,382.6,170.4,382.6,170.4z M302.8,147.5c-2.4,0-4.4,2-4.4,4.4v12.7&#10;&#9;&#9;c0,2.4,2,4.4,4.4,4.4h79.9c2.4,0,4.4-2,4.4-4.4v-12.7c0-2.4-2-4.4-4.4-4.4H302.8z"/>
	<path class="st0_data-center-54" d="M376.8,156.3h-38.7c-0.3,0-0.6-0.3-0.6-0.6c0-0.3,0.3-0.6,0.6-0.6h38.7c0.3,0,0.6,0.3,0.6,0.6&#10;&#9;&#9;C377.4,156,377.1,156.3,376.8,156.3z"/>
	<path class="st0_data-center-54" d="M376.8,162.2h-38.7c-0.3,0-0.7-0.2-0.7-0.5c0-0.3,0.2-0.7,0.5-0.7c0.1,0,0.1,0,0.2,0h38.7&#10;&#9;&#9;c0.3,0,0.7,0.2,0.7,0.5c0,0.3-0.2,0.7-0.5,0.7C376.9,162.2,376.8,162.2,376.8,162.2z"/>
	<circle class="st3_data-center-54 targetColor" cx="309.9" cy="158.2" r="3.6" style="fill: rgb(104, 225, 253);"/>
	<path class="st0_data-center-54" d="M321.4,162.4c-2.3,0-4.2-1.9-4.2-4.2c0-2.3,1.9-4.2,4.2-4.2c2.3,0,4.2,1.9,4.2,4.2&#10;&#9;&#9;C325.6,160.5,323.8,162.4,321.4,162.4z M321.4,155.3c-1.6,0-2.9,1.3-2.9,2.9c0,1.6,1.3,2.9,2.9,2.9c1.6,0,2.9-1.3,2.9-2.9&#10;&#9;&#9;c0,0,0,0,0,0C324.4,156.6,323.1,155.3,321.4,155.3z"/>
	<path class="st1_data-center-54" d="M302.8,174.7h79.8c2.8,0,5.1,2.3,5.1,5.1v12.7c0,2.8-2.3,5.1-5.1,5.1h-79.8c-2.8,0-5.1-2.3-5.1-5.1v-12.7&#10;&#9;&#9;C297.7,177,300,174.7,302.8,174.7z"/>
	<path class="st2_data-center-54" d="M382.6,198.3h-79.8c-3.2,0-5.8-2.6-5.8-5.8v-12.7c0-3.2,2.6-5.8,5.8-5.8h79.9c3.2,0,5.8,2.6,5.8,5.8v12.7&#10;&#9;&#9;C388.4,195.7,385.8,198.3,382.6,198.3C382.6,198.3,382.6,198.3,382.6,198.3z M302.8,175.4c-2.4,0-4.4,2-4.4,4.4v12.7&#10;&#9;&#9;c0,2.4,2,4.4,4.4,4.4h79.9c2.4,0,4.4-2,4.4-4.4v-12.7c0-2.4-2-4.4-4.4-4.4H302.8z"/>
	<path class="st0_data-center-54" d="M376.8,184.3h-38.7c-0.3,0-0.6-0.3-0.6-0.6c0-0.3,0.3-0.6,0.6-0.6l0,0h38.7c0.3,0,0.6,0.3,0.6,0.6c0,0,0,0,0,0&#10;&#9;&#9;C377.4,184,377.1,184.3,376.8,184.3L376.8,184.3z"/>
	<path class="st0_data-center-54" d="M376.8,190.2h-38.7c-0.3,0-0.6-0.3-0.6-0.6c0-0.3,0.3-0.6,0.6-0.6h38.7c0.3,0,0.6,0.3,0.6,0.6&#10;&#9;&#9;C377.4,189.9,377.1,190.2,376.8,190.2z"/>
	<circle class="st3_data-center-54 targetColor" cx="309.9" cy="186.2" r="3.6" style="fill: rgb(104, 225, 253);"/>
	<path class="st0_data-center-54" d="M321.4,190.4c-2.3,0-4.2-1.9-4.2-4.2c0-2.3,1.9-4.2,4.2-4.2c2.3,0,4.2,1.9,4.2,4.2&#10;&#9;&#9;C325.6,188.5,323.8,190.4,321.4,190.4z M321.4,183.2c-1.6,0-2.9,1.3-2.9,2.9s1.3,2.9,2.9,2.9c1.6,0,2.9-1.3,2.9-2.9&#10;&#9;&#9;C324.4,184.6,323.1,183.2,321.4,183.2C321.4,183.2,321.4,183.2,321.4,183.2z"/>
	<path class="st1_data-center-54" d="M302.8,202.7h79.8c2.8,0,5.1,2.3,5.1,5.1v12.7c0,2.8-2.3,5.1-5.1,5.1h-79.8c-2.8,0-5.1-2.3-5.1-5.1v-12.7&#10;&#9;&#9;C297.7,205,300,202.7,302.8,202.7z"/>
	<path class="st2_data-center-54" d="M382.6,226.3h-79.8c-3.2,0-5.8-2.6-5.8-5.8v-12.7c0-3.2,2.6-5.8,5.8-5.8h79.9c3.2,0,5.8,2.6,5.8,5.8v12.7&#10;&#9;&#9;C388.4,223.7,385.8,226.3,382.6,226.3C382.6,226.3,382.6,226.3,382.6,226.3z M302.8,203.4c-2.4,0-4.4,2-4.4,4.4v12.7&#10;&#9;&#9;c0,2.4,2,4.4,4.4,4.4h79.9c2.4,0,4.4-2,4.4-4.4v-12.7c0-2.4-2-4.4-4.4-4.4H302.8z"/>
	<path class="st0_data-center-54" d="M376.8,212.2h-38.7c-0.3,0-0.6-0.3-0.6-0.6c0-0.3,0.3-0.6,0.6-0.6c0,0,0,0,0,0h38.7c0.3,0,0.6,0.3,0.6,0.6&#10;&#9;&#9;C377.4,212,377.1,212.2,376.8,212.2z"/>
	<path class="st0_data-center-54" d="M376.8,218.2h-38.7c-0.3,0-0.6-0.3-0.6-0.6c0-0.3,0.3-0.6,0.6-0.6l0,0h38.7c0.3,0,0.6,0.3,0.6,0.6c0,0,0,0,0,0&#10;&#9;&#9;C377.4,217.9,377.1,218.2,376.8,218.2L376.8,218.2z"/>
	<circle class="st3_data-center-54 targetColor" cx="309.9" cy="214.1" r="3.6" style="fill: rgb(104, 225, 253);"/>
	<path class="st0_data-center-54" d="M321.4,218.3c-2.3,0-4.2-1.9-4.2-4.2c0-2.3,1.9-4.2,4.2-4.2c2.3,0,4.2,1.9,4.2,4.2&#10;&#9;&#9;C325.6,216.5,323.8,218.3,321.4,218.3C321.4,218.3,321.4,218.3,321.4,218.3z M321.4,211.2c-1.6,0-2.9,1.3-2.9,2.9&#10;&#9;&#9;c0,1.6,1.3,2.9,2.9,2.9c1.6,0,2.9-1.3,2.9-2.9c0,0,0,0,0,0C324.4,212.5,323.1,211.2,321.4,211.2z"/>
	<path class="st1_data-center-54" d="M302.8,230.7h79.8c2.8,0,5.1,2.3,5.1,5.1v12.7c0,2.8-2.3,5.1-5.1,5.1h-79.8c-2.8,0-5.1-2.3-5.1-5.1v-12.7&#10;&#9;&#9;C297.7,233,300,230.7,302.8,230.7z"/>
	<path class="st2_data-center-54" d="M382.6,254.3h-79.8c-3.2,0-5.8-2.6-5.8-5.8v-12.7c0-3.2,2.6-5.8,5.8-5.8h79.9c3.2,0,5.8,2.6,5.8,5.8v12.7&#10;&#9;&#9;C388.4,251.7,385.8,254.3,382.6,254.3C382.6,254.3,382.6,254.3,382.6,254.3z M302.8,231.4c-2.4,0-4.4,2-4.4,4.4v12.7&#10;&#9;&#9;c0,2.4,2,4.4,4.4,4.4h79.9c2.4,0,4.4-2,4.4-4.4v-12.7c0-2.4-2-4.4-4.4-4.4H302.8z"/>
	<path class="st0_data-center-54" d="M376.8,240.2h-38.7c-0.3,0-0.6-0.3-0.6-0.6c0-0.3,0.3-0.6,0.6-0.6l0,0h38.7c0.3,0,0.6,0.3,0.6,0.6c0,0,0,0,0,0&#10;&#9;&#9;C377.4,239.9,377.1,240.2,376.8,240.2L376.8,240.2z"/>
	<path class="st0_data-center-54" d="M376.8,246.1h-38.7c-0.3,0-0.6-0.3-0.6-0.6c0-0.3,0.3-0.6,0.6-0.6c0,0,0,0,0,0h38.7c0.3,0,0.6,0.3,0.6,0.6&#10;&#9;&#9;C377.4,245.9,377.1,246.1,376.8,246.1z"/>
	<circle class="st3_data-center-54 targetColor" cx="309.9" cy="242.1" r="3.6" style="fill: rgb(104, 225, 253);"/>
	<path class="st0_data-center-54" d="M321.4,246.3c-2.3,0-4.2-1.9-4.2-4.2c0-2.3,1.9-4.2,4.2-4.2c2.3,0,4.2,1.9,4.2,4.2&#10;&#9;&#9;C325.6,244.4,323.8,246.3,321.4,246.3z M321.4,239.2c-1.6,0-2.9,1.3-2.9,2.9s1.3,2.9,2.9,2.9c1.6,0,2.9-1.3,2.9-2.9&#10;&#9;&#9;C324.4,240.5,323.1,239.2,321.4,239.2C321.4,239.2,321.4,239.2,321.4,239.2L321.4,239.2z"/>
	<path class="st1_data-center-54" d="M302.8,258.7h79.8c2.8,0,5.1,2.3,5.1,5.1v12.7c0,2.8-2.3,5.1-5.1,5.1h-79.8c-2.8,0-5.1-2.3-5.1-5.1v-12.7&#10;&#9;&#9;C297.7,260.9,300,258.7,302.8,258.7z"/>
	<path class="st2_data-center-54" d="M382.6,282.2h-79.8c-3.2,0-5.8-2.6-5.8-5.8v-12.7c0-3.2,2.6-5.8,5.8-5.8h79.9c3.2,0,5.8,2.6,5.8,5.8v12.7&#10;&#9;&#9;C388.4,279.7,385.8,282.2,382.6,282.2L382.6,282.2z M302.8,259.4c-2.4,0-4.4,2-4.4,4.4v12.7c0,2.4,2,4.4,4.4,4.4h79.9&#10;&#9;&#9;c2.4,0,4.4-2,4.4-4.4v-12.7c0-2.4-2-4.4-4.4-4.4H302.8z"/>
	<path class="st0_data-center-54" d="M376.8,268.2h-38.7c-0.3,0-0.6-0.3-0.6-0.6s0.3-0.6,0.6-0.6h38.7c0.3,0,0.6,0.3,0.6,0.6&#10;&#9;&#9;S377.1,268.2,376.8,268.2z"/>
	<path class="st0_data-center-54" d="M376.8,274.1h-38.7c-0.3,0-0.6-0.3-0.6-0.6c0-0.3,0.3-0.6,0.6-0.6l0,0h38.7c0.3,0,0.6,0.3,0.6,0.6l0,0&#10;&#9;&#9;C377.4,273.8,377.1,274.1,376.8,274.1L376.8,274.1z"/>
	<circle class="st3_data-center-54 targetColor" cx="309.9" cy="270.1" r="3.6" style="fill: rgb(104, 225, 253);"/>
	<path class="st0_data-center-54" d="M321.4,274.3c-2.3,0-4.2-1.9-4.2-4.2c0-2.3,1.9-4.2,4.2-4.2c2.3,0,4.2,1.9,4.2,4.2&#10;&#9;&#9;C325.6,272.4,323.8,274.3,321.4,274.3C321.4,274.3,321.4,274.3,321.4,274.3z M321.4,267.2c-1.6,0-2.9,1.3-2.9,2.9&#10;&#9;&#9;c0,1.6,1.3,2.9,2.9,2.9c1.6,0,2.9-1.3,2.9-2.9c0,0,0,0,0,0C324.4,268.5,323.1,267.2,321.4,267.2z"/>
	<path class="st1_data-center-54" d="M302.8,286.6h79.8c2.8,0,5.1,2.3,5.1,5.1v12.7c0,2.8-2.3,5.1-5.1,5.1h-79.8c-2.8,0-5.1-2.3-5.1-5.1v-12.7&#10;&#9;&#9;C297.7,288.9,300,286.6,302.8,286.6z"/>
	<path class="st2_data-center-54" d="M382.6,310.2h-79.8c-3.2,0-5.8-2.6-5.8-5.8v-12.7c0-3.2,2.6-5.8,5.8-5.8h79.9c3.2,0,5.8,2.6,5.8,5.8v12.7&#10;&#9;&#9;C388.4,307.6,385.8,310.2,382.6,310.2L382.6,310.2z M302.8,287.3c-2.4,0-4.4,2-4.4,4.4v12.7c0,2.4,2,4.4,4.4,4.4h79.9&#10;&#9;&#9;c2.4,0,4.4-2,4.4-4.4v-12.7c0-2.4-2-4.4-4.4-4.4H302.8z"/>
	<path class="st0_data-center-54" d="M376.8,296.2h-38.7c-0.3,0-0.6-0.3-0.6-0.6c0-0.3,0.3-0.6,0.6-0.6l0,0h38.7c0.3,0,0.6,0.3,0.6,0.6l0,0&#10;&#9;&#9;C377.4,295.9,377.1,296.2,376.8,296.2L376.8,296.2z"/>
	<path class="st0_data-center-54" d="M376.8,302.1h-38.7c-0.3,0-0.6-0.3-0.6-0.6s0.3-0.6,0.6-0.6h38.7c0.3,0,0.6,0.3,0.6,0.6&#10;&#9;&#9;S377.1,302.1,376.8,302.1z"/>
	<circle class="st3_data-center-54 targetColor" cx="309.9" cy="298.1" r="3.6" style="fill: rgb(104, 225, 253);"/>
	<path class="st0_data-center-54" d="M321.4,302.3c-2.3,0-4.2-1.9-4.2-4.2c0-2.3,1.9-4.2,4.2-4.2c2.3,0,4.2,1.9,4.2,4.2&#10;&#9;&#9;C325.6,300.4,323.8,302.3,321.4,302.3z M321.4,295.1c-1.6,0-2.9,1.3-2.9,2.9c0,1.6,1.3,2.9,2.9,2.9c1.6,0,2.9-1.3,2.9-2.9&#10;&#9;&#9;C324.4,296.5,323.1,295.1,321.4,295.1C321.4,295.1,321.4,295.1,321.4,295.1z"/>
</g>
<g id="Screen_data-center-54">
	<path class="st1_data-center-54" d="M39.5,204h162.8c4.1,0,7.4,3.3,7.4,7.4v82.9c0,4.1-3.3,7.4-7.4,7.4H39.5c-4.1,0-7.4-3.3-7.4-7.4v-82.9&#10;&#9;&#9;C32.2,207.3,35.5,204,39.5,204z"/>
	<path class="st2_data-center-54" d="M202.3,302.4H39.5c-4.5,0-8.1-3.6-8.1-8.1v-82.9c0-4.5,3.6-8.1,8.1-8.1h162.8c4.5,0,8.1,3.6,8.1,8.1v82.9&#10;&#9;&#9;C210.4,298.7,206.8,302.3,202.3,302.4z M39.5,204.7c-3.7,0-6.7,3-6.7,6.7v82.9c0,3.7,3,6.7,6.7,6.7c0,0,0,0,0,0h162.8&#10;&#9;&#9;c3.7,0,6.7-3,6.7-6.7l0,0v-82.9c0-3.7-3-6.7-6.7-6.7H39.5z"/>
	<rect x="32.2" y="215.1" class="st1_data-center-54" width="177.5" height="75.4"/>
	<path class="st2_data-center-54" d="M209.7,291.2H32.2c-0.4,0-0.7-0.3-0.7-0.7c0,0,0,0,0,0v-75.4c0-0.4,0.3-0.7,0.7-0.7c0,0,0,0,0,0h177.5&#10;&#9;&#9;c0.4,0,0.7,0.3,0.7,0.7v0v75.4C210.4,290.9,210.1,291.2,209.7,291.2C209.7,291.2,209.7,291.2,209.7,291.2z M32.9,289.8H209v-74&#10;&#9;&#9;H32.9V289.8z"/>
	<polygon class="st1_data-center-54" points="151.9,323 89.9,323 96.9,301.6 144.9,301.6 &#9;"/>
	<path class="st2_data-center-54" d="M151.9,323.7H89.9c-0.2,0-0.4-0.1-0.6-0.3c-0.1-0.2-0.2-0.4-0.1-0.6l7-21.4c0.1-0.3,0.4-0.5,0.7-0.5h48&#10;&#9;&#9;c0.3,0,0.6,0.2,0.7,0.5l7,21.4c0.1,0.4-0.1,0.8-0.5,0.9C152,323.7,152,323.7,151.9,323.7L151.9,323.7z M90.9,322.3H151l-6.6-20h-47&#10;&#9;&#9;L90.9,322.3z"/>
	<path class="st1_data-center-54" d="M84.8,323h72.3c1.7,0,3,1.3,3,3v0c0,1.7-1.3,3-3,3H84.8c-1.7,0-3-1.3-3-3v0C81.7,324.4,83.1,323,84.8,323z"/>
	<path class="st2_data-center-54" d="M157.1,329.8H84.8c-2.1-0.1-3.6-1.9-3.5-3.9c0.1-1.9,1.6-3.4,3.5-3.5h72.3c2.1,0.1,3.6,1.9,3.5,3.9&#10;&#9;&#9;C160.5,328.1,159,329.7,157.1,329.8z M84.8,323.8c-1.3,0.1-2.2,1.2-2.2,2.5c0.1,1.2,1,2.1,2.2,2.2h72.3c1.3,0.1,2.4-0.9,2.5-2.2&#10;&#9;&#9;c0.1-1.3-0.9-2.4-2.2-2.5c-0.1,0-0.2,0-0.3,0H84.8z"/>
	<path class="st2_data-center-54" d="M92,317.4c1-0.5,54.7-10.4,54.7-10.4l-1.8-5.4H97L92,317.4z"/>
	<path class="st2_data-center-54" d="M91.9,318.1c-0.2,0-0.3-0.1-0.4-0.2c-0.2-0.2-0.3-0.5-0.2-0.7l4.9-15.7c0.1-0.3,0.4-0.5,0.7-0.5h48&#10;&#9;&#9;c0.3,0,0.5,0.2,0.6,0.5l1.8,5.4c0.1,0.2,0,0.4-0.1,0.6c-0.1,0.2-0.3,0.3-0.5,0.3c-21.2,3.9-53.2,9.8-54.6,10.3&#10;&#9;&#9;C92.1,318,92,318.1,91.9,318.1z M97.4,302.3L93,316.4c7.1-1.6,40.7-7.7,52.8-10l-1.4-4.1L97.4,302.3z"/>
</g>
<g id="Graph_data-center-54">
	<rect x="187.9" y="276.5" class="st3_data-center-54 targetColor" width="7.6" height="5.2" style="fill: rgb(104, 225, 253);"/>
	<rect x="177.1" y="269.1" class="st0_data-center-54" width="7.6" height="12.6"/>
	<rect x="166.2" y="240.4" class="st3_data-center-54 targetColor" width="7.6" height="41.3" style="fill: rgb(104, 225, 253);"/>
	<rect x="155.3" y="234.4" class="st0_data-center-54" width="7.6" height="47.3"/>
	<rect x="144.4" y="252.6" class="st3_data-center-54 targetColor" width="7.6" height="29.1" style="fill: rgb(104, 225, 253);"/>
	<rect x="133.5" y="239.4" class="st0_data-center-54" width="7.6" height="42.3"/>
	<rect x="122.6" y="269.1" class="st3_data-center-54 targetColor" width="7.6" height="12.6" style="fill: rgb(104, 225, 253);"/>
	<rect x="111.7" y="232.8" class="st0_data-center-54" width="7.6" height="48.9"/>
	<rect x="100.8" y="224" class="st3_data-center-54 targetColor" width="7.6" height="57.7" style="fill: rgb(104, 225, 253);"/>
	<rect x="89.9" y="251.3" class="st0_data-center-54" width="7.6" height="30.4"/>
	<rect x="79" y="267.1" class="st3_data-center-54 targetColor" width="7.6" height="14.6" style="fill: rgb(104, 225, 253);"/>
	<rect x="68.1" y="256.5" class="st0_data-center-54" width="7.6" height="25.2"/>
	<rect x="57.2" y="262.9" class="st3_data-center-54 targetColor" width="7.6" height="18.8" style="fill: rgb(104, 225, 253);"/>
	<rect x="46.3" y="267" class="st0_data-center-54" width="7.6" height="14.7"/>
</g>
<g id="Note_data-center-54">
	<polygon class="st1_data-center-54" points="203.8,151.9 142.3,151.9 142.3,179.9 142.3,184.3 142.3,193 153.9,184.3 203.8,184.3 &#9;"/>
	<path class="st0_data-center-54" d="M142.3,193.7c-0.1,0-0.2,0-0.3-0.1c-0.2-0.1-0.3-0.3-0.4-0.6v-41.1c0-0.3,0.3-0.6,0.6-0.6c0,0,0,0,0,0h61.5&#10;&#9;&#9;c0.3,0,0.6,0.3,0.6,0.6c0,0,0,0,0,0v32.4c0,0.3-0.3,0.6-0.6,0.6c0,0,0,0,0,0h-49.7l-11.4,8.6C142.6,193.6,142.5,193.7,142.3,193.7z&#10;&#9;&#9; M143,152.5v39.2l10.6-7.9c0.1-0.1,0.2-0.1,0.4-0.1h49.3v-31.2L143,152.5z"/>
</g>
</svg>